<?xml version="1.0" encoding="UTF-8"?>
<svg version="1.1" xmlns="http://www.w3.org/2000/svg" width="500" height="500">
<path d="M0 0 C3.94547509 1.78719191 5.55849024 3.80854124 8.0625 7.375 C12.89424505 14.06643817 18.30862999 20.0344472 24 26 C24.72832031 26.78117187 25.45664063 27.56234375 26.20703125 28.3671875 C30.40804275 32.74746294 34.88166184 36.66503998 39.625 40.4375 C40.13200439 40.84363525 40.63900879 41.24977051 41.16137695 41.66821289 C52.55530731 50.52598116 65.01496769 57.9509064 77.4375 65.25 C78.83168124 66.07417282 80.22563938 66.89872314 81.61938477 67.72363281 C88.09072569 71.54888755 94.57873491 75.34335451 101.09375 79.09375 C102.17213135 79.71604492 103.2505127 80.33833984 104.36157227 80.97949219 C106.33750557 82.11684184 108.31689207 83.24822469 110.30053711 84.37207031 C124.43054215 92.49608734 133.90856071 101.53852875 138.75390625 117.48046875 C139.21669262 119.30896035 139.61670377 121.15320906 140 123 C145.70547124 120.67913034 149.08994244 118.67568106 152.08984375 113.21484375 C154.20552601 108.06638091 154.65884598 103.81182644 152.75 98.5625 C150.8470746 95.77607353 149.33474476 94.27052188 145.95703125 93.5859375 C145.24933594 93.51632813 144.54164063 93.44671875 143.8125 93.375 C142.554375 93.25125 141.29625 93.1275 140 93 C139.63339153 88.47849548 139.63339153 88.47849548 141.203125 86.4296875 C143.3865461 84.69244376 145.24592798 84.14580843 147.9375 83.4375 C150.47086492 82.76117181 152.7278602 82.14097565 155.05859375 80.93359375 C159.35900956 78.86558695 164.08653503 79.51947571 168.59765625 80.65234375 C175.31007356 83.0113079 179.79322372 86.58644745 183 93 C183.09397224 94.7687664 183.18317538 96.53800794 183.24023438 98.30834961 C183.52248647 110.5377945 183.52248647 110.5377945 189 121 C189.65355469 119.42412109 189.65355469 119.42412109 190.3203125 117.81640625 C197.99145735 99.59282324 206.32838419 92.09926785 223.54959106 82.17745972 C226.73356538 80.3417041 229.90764271 78.48898584 233.08203125 76.63671875 C233.73431198 76.25634964 234.38659271 75.87598053 235.05863953 75.48408508 C241.49965212 71.72120616 247.8973287 67.88827574 254.27593994 64.02069092 C256.00293896 62.97361184 257.73166414 61.92938146 259.46044922 60.88525391 C273.54332575 52.32507405 286.51621358 43.21516024 298.6875 32.08984375 C300.64985514 30.31643159 302.64661409 28.61849755 304.6875 26.9375 C309.84432318 22.50883935 313.99462523 17.40062076 318.00390625 11.9296875 C318.53798096 11.20313965 319.07205566 10.4765918 319.62231445 9.72802734 C320.69948342 8.25356447 321.76721804 6.77215853 322.82495117 5.28369141 C323.32099854 4.60226074 323.8170459 3.92083008 324.328125 3.21875 C324.7705957 2.59935547 325.21306641 1.97996094 325.66894531 1.34179688 C326.10819336 0.89900391 326.54744141 0.45621094 327 0 C327.99 0 328.98 0 330 0 C328.01341117 8.45037118 325.67888694 16.7523748 322.99560547 25.00854492 C322.58338745 26.28979376 322.18030386 27.57401905 321.78662109 28.86108398 C315.56085776 49.1918498 304.15047209 60.0827908 285.625 70 C283.83302603 70.97486803 282.04324192 71.95367465 280.25361633 72.93284607 C279.02051002 73.60748066 277.78685281 74.28110926 276.55265808 74.95375061 C270.00541641 78.52682318 263.53160147 82.22522679 257.0625 85.9375 C255.92538574 86.58912109 254.78827148 87.24074219 253.61669922 87.91210938 C251.29048011 89.24528216 248.96471371 90.57924087 246.63916016 91.91357422 C240.81357149 95.25498627 234.98102933 98.58424457 229.14938354 101.91506958 C226.14623201 103.63047375 223.1434427 105.34651152 220.140625 107.0625 C218.42708333 108.04166667 216.71354167 109.02083333 215 110 C225.28888994 105.99855557 235.0179495 101.06674596 244.8125 96 C245.62814423 95.57959442 246.44378845 95.15918884 247.28414917 94.7260437 C262.71059779 86.76930745 277.93358186 78.53113197 292.765625 69.50390625 C293.69818115 68.93728271 294.6307373 68.37065918 295.59155273 67.78686523 C297.36215862 66.7054373 299.12761797 65.61552228 300.88696289 64.51586914 C301.66289795 64.03883545 302.43883301 63.56180176 303.23828125 63.0703125 C303.91930908 62.64508301 304.60033691 62.21985352 305.30200195 61.78173828 C305.86234131 61.52376465 306.42268066 61.26579102 307 61 C307.66 61.33 308.32 61.66 309 62 C303.89674867 71.88547384 298.70094489 81.71105884 293.1875 91.375 C292.7443042 92.16430908 292.3011084 92.95361816 291.84448242 93.7668457 C287.68278596 100.98248262 282.62534929 106.47339231 275 110 C272.92989252 110.53375042 270.83828611 110.9864512 268.73828125 111.38671875 C268.10123764 111.5088826 267.46419403 111.63104645 266.80784607 111.75691223 C256.42020109 113.71670969 245.9860733 115.43195912 235.5625 117.1875 C233.36650191 117.55904063 231.17053809 117.93078394 228.97460938 118.30273438 C223.6501321 119.2041573 218.32523885 120.10308769 213 121 C229.73429371 119.89322809 246.24307684 118.01351437 262.84448242 115.67700195 C263.62789505 115.56706406 264.41130768 115.45712616 265.21846008 115.34385681 C266.69851414 115.13528392 268.17826043 114.92451131 269.65763855 114.7111969 C272.47088005 114.31219068 275.15386001 114 278 114 C276.48147523 117.83945182 274.22197262 119.67491055 271 122.1875 C267.10450667 125.28143048 263.34938193 128.4451245 259.6875 131.8125 C253.74375251 137.17591309 249.40403871 140.88931575 241 141 C238.15090145 140.51642834 235.50501216 139.64443793 232.78125 138.69140625 C232.03790405 138.44583481 231.29455811 138.20026337 230.52868652 137.94725037 C228.18035968 137.16758223 225.84042295 136.36554376 223.5 135.5625 C221.89893998 135.02649154 220.29738088 134.4919714 218.6953125 133.95898438 C214.79089552 132.65645449 210.89383246 131.33382177 207 130 C207.73822998 130.46543213 208.47645996 130.93086426 209.23706055 131.41040039 C210.21457275 132.02906982 211.19208496 132.64773926 212.19921875 133.28515625 C213.16432373 133.89496338 214.12942871 134.50477051 215.1237793 135.13305664 C222.5775427 139.97126467 230.52231549 145.28627422 233.7265625 153.96875 C234.89086542 159.7217762 233.02173694 164.14493105 230 169 C226.95362626 173.25236351 223.65115721 177.29945922 220.33789062 181.34472656 C217.91883266 184.33764864 215.63594554 187.43577006 213.33984375 190.5234375 C212.89769531 191.01070312 212.45554687 191.49796875 212 192 C211.34 192 210.68 192 210 192 C210.15984375 190.88109375 210.3196875 189.7621875 210.484375 188.609375 C213.03672783 168.02763621 210.00368399 149.34616471 197.0625 132.625 C196.05420627 131.4061834 195.03850679 130.19317802 194 129 C194.79664063 130.72283203 194.79664063 130.72283203 195.609375 132.48046875 C210.16215622 164.33080061 210.16215622 164.33080061 205.046875 181.41015625 C203.66910089 184.8186049 201.87380136 187.83699233 200 191 C210.04742874 204.83124765 221.04412594 214.08101349 235.59814453 223.01953125 C236.29206299 223.50486328 236.29206299 223.50486328 237 224 C237 224.33 237 224.66 237 225 C233.68798092 225.14723105 230.37681941 225.23469907 227.0625 225.3125 C225.67321289 225.3753418 225.67321289 225.3753418 224.25585938 225.43945312 C217.32581114 225.56103292 212.5774958 224.17628578 207 220 C204.8359375 217.78125 204.8359375 217.78125 203.375 215.5 C202.82457031 214.64664063 202.27414062 213.79328125 201.70703125 212.9140625 C198.64671909 207.68982253 195.77509997 202.38150086 193 197 C193 200.8510344 193.23197052 201.95890973 194.90625 205.1953125 C195.31649414 205.98905273 195.72673828 206.78279297 196.14941406 207.60058594 C196.59510742 208.43364258 197.04080078 209.26669922 197.5 210.125 C197.95342773 210.97868164 198.40685547 211.83236328 198.87402344 212.71191406 C202.31840023 219.05198447 206.15552248 224.63795009 211 230 C212.16860126 231.37335618 213.33544404 232.74821188 214.5 234.125 C215.325 235.07375 216.15 236.0225 217 237 C210.16833214 237.5039755 204.54291917 237.3696879 199 233 C191.44383081 225.19374483 188.51105227 212.44738289 187 202 C185.83984375 203.08667969 185.83984375 203.08667969 184.65625 204.1953125 C178.98150985 209.47501045 173.32744721 214.49777795 167 219 C168.27978471 214.84069969 169.88161643 210.97287108 171.71582031 207.0402832 C178.09328447 193.30223778 182.59812229 179.47269261 185.3125 164.5625 C185.55178223 163.279198 185.55178223 163.279198 185.79589844 161.9699707 C187.39278801 152.39127712 187.61085445 142.6869234 188 133 C187.75165909 133.8224118 187.50331818 134.64482361 187.24745178 135.49215698 C184.90969557 143.23277284 182.57021513 150.97286496 180.22878361 158.71236992 C179.02501908 162.69158448 177.82192838 166.67100019 176.62036133 170.65087891 C175.46132171 174.48980788 174.30053342 178.32820403 173.13851738 182.16623306 C172.69492369 183.63249902 172.25196641 185.09895766 171.80964851 186.56560898 C171.19125729 188.61570095 170.57063136 190.66510357 169.94946289 192.71435547 C169.41984703 194.466418 169.41984703 194.466418 168.87953186 196.25387573 C168 199 168 199 167 201 C165.68 201 164.36 201 163 201 C155.56892985 179.12246904 148.57206561 157.15077482 142 135 C141.81008682 144.16741415 142.05579693 152.82604755 143.6875 161.875 C143.95977417 163.42151245 143.95977417 163.42151245 144.23754883 164.99926758 C147.14699083 180.87580225 152.41651047 195.01198755 158.98925781 209.72753906 C160.35808183 212.80507868 161.68132235 215.90068755 163 219 C160.05886531 217.66465724 157.89154831 216.17535119 155.546875 213.9609375 C154.928125 213.38085938 154.309375 212.80078125 153.671875 212.203125 C153.03765625 211.59984375 152.4034375 210.9965625 151.75 210.375 C151.1003125 209.76398438 150.450625 209.15296875 149.78125 208.5234375 C148.18354937 207.01971926 146.59000851 205.51184263 145 204 C144.56300781 205.77503906 144.56300781 205.77503906 144.1171875 207.5859375 C138.63590474 229.04351398 138.63590474 229.04351398 130.8125 234.5625 C127.10085091 236.45956509 124.42727832 237.12213447 120.3125 237.0625 C119.50425781 237.05347656 118.69601563 237.04445313 117.86328125 237.03515625 C116.94095703 237.01775391 116.94095703 237.01775391 116 237 C117.48263872 233.56120966 119.45383886 231.35137089 122.0625 228.6875 C130.11435842 219.89539008 136.19810974 209.29932419 140 198 C139.01 198 138.02 198 137 198 C136.67 199.2375 136.34 200.475 136 201.75 C132.92936339 210.90397328 127.45745195 219.19086065 119 224 C116.05868109 224.98043964 114.17498335 225.11621202 111.11328125 225.09765625 C110.17548828 225.09443359 109.23769531 225.09121094 108.27148438 225.08789062 C107.29501953 225.07951172 106.31855469 225.07113281 105.3125 225.0625 C104.32443359 225.05798828 103.33636719 225.05347656 102.31835938 225.04882812 C99.87884526 225.03704303 97.43945311 225.02059011 95 225 C97.46953988 222.43883094 99.94352426 220.71421651 103 218.875 C113.92231214 212.00707321 125.94513375 203.32123647 131 191 C130.59007812 190.55269531 130.18015625 190.10539063 129.7578125 189.64453125 C129.21898437 189.03996094 128.68015625 188.43539062 128.125 187.8125 C127.59132813 187.22082031 127.05765625 186.62914062 126.5078125 186.01953125 C121.3987171 179.17652006 122.27289658 170.13446957 123 162 C124.87256771 151.92430895 129.04499847 142.41290364 133 133 C118.02240502 151.5454588 116.90188014 170.10801364 119 193 C114.1542547 188.50037936 110.32038227 183.35254869 106.375 178.0625 C105.70726562 177.18142578 105.03953125 176.30035156 104.3515625 175.39257812 C95.31900604 163.33411525 95.31900604 163.33411525 95.66015625 155.16015625 C96.70101719 148.54410915 103.11792303 143.19038237 108 139 C111.57686568 136.50703301 115.24270914 134.21017109 119 132 C115.61104481 132.61678909 112.44815083 133.45370518 109.19921875 134.59375 C108.30396484 134.90183594 107.40871094 135.20992187 106.48632812 135.52734375 C104.63089511 136.1721488 102.77670687 136.82054769 100.92382812 137.47265625 C86.40287964 142.44829308 86.40287964 142.44829308 79.25390625 139.3984375 C75.07733851 136.80708351 71.64302211 133.3197495 68.109375 129.93359375 C62.80069744 124.85696215 57.11228369 120.0748558 51 116 C51 115.34 51 114.68 51 114 C51.88964195 114.10942177 51.88964195 114.10942177 52.79725647 114.22105408 C59.04368265 114.98850466 65.29080187 115.75011898 71.53833008 116.50854492 C73.86109901 116.79126782 76.18369523 117.07541377 78.50610352 117.36108398 C90.99616514 118.89646077 103.42914864 120.35739279 116 121 C115.30001892 120.88804291 114.60003784 120.77608582 113.87884521 120.66073608 C107.22758253 119.5932919 100.57969544 118.50667702 93.93496323 117.39935875 C90.52006805 116.83095084 87.10434479 116.2695828 83.68554688 115.72509766 C79.7396979 115.09633908 75.79976349 114.43556246 71.859375 113.7734375 C70.04925934 113.49178238 70.04925934 113.49178238 68.20257568 113.20443726 C58.46964507 111.52883639 47.63948047 108.53203621 41.42724609 100.26269531 C37.96485069 94.77356076 34.88040767 89.08974378 31.8125 83.375 C30.74413562 81.40397278 29.67342484 79.43423613 28.60221863 77.4647522 C27.63570418 75.68478354 26.67474261 73.90180297 25.71411133 72.11865234 C24.6256604 70.13832588 23.4845005 68.18539252 22.27612305 66.27587891 C21 64 21 64 21 61 C24.29501014 62.24752024 27.27250268 63.64690043 30.28125 65.4765625 C31.10858643 65.97446289 31.93592285 66.47236328 32.78833008 66.98535156 C33.68318115 67.52643555 34.57803223 68.06751953 35.5 68.625 C48.09125679 76.15130047 60.909505 83.23910017 73.79101562 90.25244141 C75.73649768 91.31191802 77.68083888 92.37349817 79.62304688 93.43896484 C90.81596956 99.57510194 102.30226293 104.89603023 114 110 C113.35264893 109.63874023 112.70529785 109.27748047 112.03833008 108.90527344 C99.19134335 101.7324386 86.36361981 94.53013616 73.6015625 87.20703125 C69.39594918 84.79451482 65.18016252 82.40031904 60.9609375 80.01171875 C28.90470448 61.8508426 13.64629658 49.08391959 2.80224609 12.92724609 C1.63282213 8.66023657 0.76243936 4.35636449 0 0 Z M158 87 C162 88 162 88 162 88 Z " fill="#000000" transform="translate(85,104)"/>
<path d="M0 0 C3.38256721 1.39197329 4.83688682 2.8025496 6.6875 5.9375 C7.10386719 6.62714844 7.52023438 7.31679688 7.94921875 8.02734375 C10.82651211 13.42895396 10.70017657 18.97574338 9.3515625 24.80078125 C5.77283025 36.34754556 -0.00954703 50.57216937 -11.06640625 56.69921875 C-15.76237054 58.58108941 -20.45332727 58.32744437 -25.4375 58.1875 C-26.82098633 58.16719727 -26.82098633 58.16719727 -28.23242188 58.14648438 C-30.48890383 58.11140953 -32.74413226 58.06226387 -35 58 C-35 57.34 -35 56.68 -35 56 C-33.27059936 54.91044742 -31.48792031 53.90519732 -29.6875 52.9375 C-23.18084544 49.24681504 -17.59447574 44.9472543 -12 40 C-11.34128906 39.42507813 -10.68257812 38.85015625 -10.00390625 38.2578125 C-4.70610764 33.32578617 2.54247831 25.14711904 3.203125 17.71484375 C3.31278274 11.21762258 2.49166271 6.0066869 0 0 Z " fill="#010101" transform="translate(232,312)"/>
<path d="M0 0 C1 3 1 3 -0.4375 6.1875 C-2.6349244 11.07293657 -2.9323969 15.29740028 -1.19140625 20.34375 C6.17474628 36.45242957 20.32938407 46.86985957 35.0859375 55.7578125 C36.03339844 56.37269531 36.03339844 56.37269531 37 57 C37 57.33 37 57.66 37 58 C33.66714074 58.14685185 30.33512655 58.23457648 27 58.3125 C26.06542969 58.35439453 25.13085938 58.39628906 24.16796875 58.43945312 C16.20252915 58.57870906 11.94221593 56.26406536 5.93359375 51.2890625 C-1.61972395 42.88772218 -9.4396205 27.89585005 -8.8671875 16.3125 C-7.77652302 9.64953151 -5.06114138 4.55502724 0 0 Z " fill="#010101" transform="translate(266,312)"/>
<path d="M0 0 C0.66 0 1.32 0 2 0 C10.17827621 33.66143687 10.17827621 33.66143687 3 46 C2.67 46.66 2.34 47.32 2 48 C-0.73156685 46.9900089 -1.81610237 46.32692912 -3.265625 43.75 C-3.59046875 42.8425 -3.9153125 41.935 -4.25 41 C-4.58515625 40.113125 -4.9203125 39.22625 -5.265625 38.3125 C-7.19200167 29.62331162 -5.55165483 21.53747446 -3.5625 13 C-3.33240234 11.96488281 -3.10230469 10.92976563 -2.86523438 9.86328125 C-1.16782924 2.33565848 -1.16782924 2.33565848 0 0 Z " fill="#010101" transform="translate(249,348)"/>
<path d="M0 0 C0.33 0 0.66 0 1 0 C1.81302403 12.98580055 0.00100158 29.17880204 -8 40 C-12.71531624 44.41549844 -16.61195273 47.14600061 -23.125 47.0625 C-24.03507813 47.05347656 -24.94515625 47.04445313 -25.8828125 47.03515625 C-26.58148438 47.02355469 -27.28015625 47.01195312 -28 47 C-26.66713024 43.98966488 -25.25580686 42.12361666 -22.8125 39.9375 C-13.39054252 30.65124972 -8.49032243 18.03448017 -3.03393555 6.20727539 C-2.05617403 4.11992193 -1.04050588 2.05667758 0 0 Z " fill="#010101" transform="translate(245,335)"/>
<path d="M0 0 C2.10961019 3.16441528 3.35089181 6.3496404 4.6875 9.875 C9.22593497 21.45404358 14.83677187 31.56693639 23 41 C23.60714844 41.71671875 24.21429688 42.4334375 24.83984375 43.171875 C26.21570827 44.79053914 27.60601372 46.39691578 29 48 C21.87732221 48.38006383 16.91168768 48.34159867 11.2578125 43.51171875 C3.66794123 35.90556021 0.00820832 24.1992727 -0.09765625 13.57421875 C-0.09106137 11.9452837 -0.07921288 10.31636266 -0.0625 8.6875 C-0.05798828 7.85154297 -0.05347656 7.01558594 -0.04882812 6.15429688 C-0.03710548 4.10283351 -0.01917203 2.05140727 0 0 Z " fill="#010101" transform="translate(254,334)"/>
</svg>
